<svg width="35" height="35" viewBox="0 0 35 35" fill="none" xmlns="http://www.w3.org/2000/svg">
<path d="M17.4999 17.5001C18.302 17.5001 18.9889 17.2142 19.5605 16.6426C20.1312 16.0719 20.4166 15.3855 20.4166 14.5834C20.4166 13.7813 20.1312 13.0945 19.5605 12.5228C18.9889 11.9521 18.302 11.6667 17.4999 11.6667C16.6978 11.6667 16.0114 11.9521 15.4408 12.5228C14.8691 13.0945 14.5833 13.7813 14.5833 14.5834C14.5833 15.3855 14.8691 16.0719 15.4408 16.6426C16.0114 17.2142 16.6978 17.5001 17.4999 17.5001ZM17.4999 32.0834C13.5867 28.7536 10.6642 25.6604 8.73242 22.804C6.79964 19.9486 5.83325 17.3056 5.83325 14.8751C5.83325 11.2292 7.00624 8.32473 9.35221 6.16154C11.6972 3.99835 14.4131 2.91675 17.4999 2.91675C20.5867 2.91675 23.3026 3.99835 25.6476 6.16154C27.9936 8.32473 29.1666 11.2292 29.1666 14.8751C29.1666 17.3056 28.2007 19.9486 26.2689 22.804C24.3361 25.6604 21.4131 28.7536 17.4999 32.0834Z" fill="#9B62E0"/>
</svg>
