<svg width="139" height="40" viewBox="0 0 139 40" fill="none" xmlns="http://www.w3.org/2000/svg">
<path d="M137.693 35.3862C137.693 37.5178 135.93 39.2445 133.75 39.2445H4.71755C2.53838 39.2445 0.769531 37.5178 0.769531 35.3862V4.61727C0.769531 2.48663 2.53838 0.753906 4.71755 0.753906H133.749C135.93 0.753906 137.692 2.48663 137.692 4.61727L137.693 35.3862Z" fill="white"/>
<path d="M133.333 0.80125C135.708 0.80125 137.64 2.68501 137.64 5V35C137.64 37.315 135.708 39.1988 133.333 39.1988H5.1282C2.75385 39.1988 0.821795 37.315 0.821795 35V5C0.821795 2.68501 2.75385 0.80125 5.1282 0.80125H133.333ZM133.333 3.8147e-06H5.1282C2.30897 3.8147e-06 0 2.25126 0 5V35C0 37.7487 2.30897 40 5.1282 40H133.333C136.153 40 138.462 37.7487 138.462 35V5C138.462 2.25126 136.153 3.8147e-06 133.333 3.8147e-06Z" fill="black"/>
<path d="M30.8997 19.7838C30.87 16.5608 33.6064 14.9928 33.7315 14.9198C32.1818 12.7168 29.7797 12.4158 28.9356 12.3918C26.9182 12.1848 24.9613 13.5688 23.9336 13.5688C22.8854 13.5688 21.3028 12.4118 19.5972 12.4458C17.4023 12.4788 15.349 13.7178 14.2228 15.6418C11.8987 19.5648 13.6321 25.3298 15.8587 28.5008C16.9726 30.0538 18.2741 31.7878 19.9777 31.7268C21.6444 31.6598 22.2669 30.6908 24.2782 30.6908C26.271 30.6908 26.8556 31.7268 28.5931 31.6878C30.3818 31.6598 31.508 30.1278 32.5828 28.5608C33.87 26.7808 34.3869 25.0278 34.4074 24.9378C34.3654 24.9238 30.9336 23.6468 30.8997 19.7838Z" fill="black"/>
<path d="M27.6177 10.3058C28.5141 9.2128 29.1274 7.7258 28.9572 6.2168C27.6597 6.2728 26.0372 7.0918 25.1028 8.1608C24.2762 9.1028 23.5377 10.6468 23.7285 12.0988C25.1859 12.2048 26.6823 11.3818 27.6177 10.3058Z" fill="black"/>
<path d="M50.3087 10.0087C50.3087 11.1857 49.9466 12.0717 49.2235 12.6667C48.5538 13.2157 47.602 13.4907 46.3692 13.4907C45.7579 13.4907 45.2348 13.4647 44.7969 13.4127V6.9817C45.3682 6.8917 45.9835 6.8457 46.6482 6.8457C47.8225 6.8457 48.7076 7.0947 49.3046 7.5927C49.9733 8.1557 50.3087 8.9607 50.3087 10.0087ZM49.1753 10.0377C49.1753 9.2747 48.9682 8.6897 48.5538 8.2817C48.1394 7.8747 47.5343 7.6707 46.7374 7.6707C46.3989 7.6707 46.1107 7.6927 45.8717 7.7387V12.6277C46.0041 12.6477 46.2461 12.6567 46.5979 12.6567C47.4205 12.6567 48.0553 12.4337 48.5025 11.9877C48.9497 11.5417 49.1753 10.8917 49.1753 10.0377Z" fill="black"/>
<path d="M56.3174 11.037C56.3174 11.762 56.1051 12.356 55.6805 12.822C55.2354 13.301 54.6456 13.54 53.9092 13.54C53.1995 13.54 52.6343 13.311 52.2128 12.851C51.7923 12.392 51.582 11.813 51.582 11.115C51.582 10.385 51.7984 9.78605 52.2333 9.32105C52.6682 8.85605 53.2528 8.62305 53.9892 8.62305C54.699 8.62305 55.2692 8.85205 55.701 9.31105C56.1113 9.75705 56.3174 10.333 56.3174 11.037ZM55.2025 11.071C55.2025 10.636 55.1061 10.263 54.9143 9.95205C54.6887 9.57605 54.3677 9.38805 53.9502 9.38805C53.5184 9.38805 53.1902 9.57605 52.9646 9.95205C52.7718 10.263 52.6764 10.642 52.6764 11.09C52.6764 11.525 52.7728 11.898 52.9646 12.209C53.1974 12.585 53.5215 12.773 53.94 12.773C54.3502 12.773 54.6723 12.582 54.9041 12.199C55.1031 11.882 55.2025 11.506 55.2025 11.071Z" fill="black"/>
<path d="M64.3762 8.71875L62.8634 13.4327H61.8788L61.2521 11.3857C61.0931 10.8747 60.9639 10.3668 60.8634 9.86275H60.8439C60.7506 10.3808 60.6213 10.8877 60.4552 11.3857L59.7896 13.4327H58.7937L57.3711 8.71875H58.4757L59.0224 10.9598C59.1547 11.4898 59.2634 11.9947 59.3506 12.4727H59.3701C59.4501 12.0787 59.5824 11.5768 59.769 10.9698L60.4552 8.71975H61.3311L61.9885 10.9218C62.1475 11.4588 62.2767 11.9758 62.3762 12.4738H62.406C62.4788 11.9887 62.5885 11.4718 62.7342 10.9218L63.3208 8.71975H64.3762V8.71875Z" fill="black"/>
<path d="M69.9469 13.4341H68.8721V10.7341C68.8721 9.90209 68.5479 9.48609 67.8977 9.48609C67.5787 9.48609 67.3213 9.60009 67.1213 9.82909C66.9233 10.0581 66.8228 10.3281 66.8228 10.6371V13.4331H65.748V10.0671C65.748 9.65309 65.7346 9.20409 65.709 8.71809H66.6536L66.7039 9.45509H66.7336C66.8587 9.22609 67.0454 9.03709 67.2905 8.88609C67.5818 8.71009 67.908 8.62109 68.2649 8.62109C68.7162 8.62109 69.0915 8.76309 69.39 9.04809C69.7613 9.39709 69.9469 9.91809 69.9469 10.6101V13.4341Z" fill="black"/>
<path d="M72.9117 13.4336H71.8379V6.55664H72.9117V13.4336Z" fill="black"/>
<path d="M79.2393 11.037C79.2393 11.762 79.027 12.356 78.6024 12.822C78.1572 13.301 77.5665 13.54 76.8311 13.54C76.1203 13.54 75.5552 13.311 75.1347 12.851C74.7142 12.392 74.5039 11.813 74.5039 11.115C74.5039 10.385 74.7203 9.78605 75.1552 9.32105C75.5901 8.85605 76.1747 8.62305 76.9101 8.62305C77.6208 8.62305 78.1901 8.85205 78.6229 9.31105C79.0331 9.75705 79.2393 10.333 79.2393 11.037ZM78.1234 11.071C78.1234 10.636 78.027 10.263 77.8352 9.95205C77.6106 9.57605 77.2885 9.38805 76.8721 9.38805C76.4393 9.38805 76.1111 9.57605 75.8865 9.95205C75.6937 10.263 75.5983 10.642 75.5983 11.09C75.5983 11.525 75.6947 11.898 75.8865 12.209C76.1193 12.585 76.4434 12.773 76.8619 12.773C77.2721 12.773 77.5931 12.582 77.8249 12.199C78.0249 11.882 78.1234 11.506 78.1234 11.071Z" fill="black"/>
<path d="M84.4419 13.433H83.4768L83.3968 12.89H83.367C83.0368 13.323 82.566 13.54 81.9547 13.54C81.4983 13.54 81.1291 13.397 80.8511 13.113C80.5988 12.855 80.4727 12.534 80.4727 12.153C80.4727 11.577 80.7188 11.138 81.2142 10.834C81.7086 10.53 82.4039 10.381 83.2993 10.388V10.3C83.2993 9.67905 82.965 9.36905 82.2952 9.36905C81.8183 9.36905 81.3978 9.48605 81.0347 9.71805L80.8162 9.03005C81.2655 8.75905 81.8204 8.62305 82.4747 8.62305C83.7383 8.62305 84.3721 9.27305 84.3721 10.573V12.309C84.3721 12.78 84.3957 13.155 84.4419 13.433ZM83.326 11.813V11.086C82.1403 11.066 81.5475 11.383 81.5475 12.036C81.5475 12.282 81.6152 12.466 81.7537 12.589C81.8921 12.712 82.0686 12.773 82.2788 12.773C82.5147 12.773 82.7352 12.7 82.9362 12.555C83.1383 12.409 83.2624 12.224 83.3086 11.997C83.3198 11.946 83.326 11.884 83.326 11.813Z" fill="black"/>
<path d="M90.549 13.4336H89.5951L89.5449 12.6766H89.5151C89.2105 13.2526 88.6915 13.5406 87.9623 13.5406C87.3797 13.5406 86.8946 13.3176 86.51 12.8716C86.1254 12.4256 85.9336 11.8466 85.9336 11.1356C85.9336 10.3726 86.1418 9.75464 86.5603 9.28264C86.9654 8.84264 87.4618 8.62264 88.0526 8.62264C88.7018 8.62264 89.1561 8.83564 89.4146 9.26264H89.4351V6.55664H90.511V12.1636C90.511 12.6226 90.5233 13.0456 90.549 13.4336ZM89.4351 11.4456V10.6596C89.4351 10.5236 89.4249 10.4136 89.4054 10.3296C89.3449 10.0776 89.2146 9.86564 89.0167 9.69464C88.8167 9.52364 88.5756 9.43764 88.2977 9.43764C87.8967 9.43764 87.5828 9.59264 87.352 9.90364C87.1233 10.2146 87.0074 10.6116 87.0074 11.0966C87.0074 11.5626 87.1172 11.9406 87.3377 12.2316C87.5705 12.5416 87.8844 12.6966 88.2772 12.6966C88.63 12.6966 88.912 12.5676 89.1264 12.3086C89.3336 12.0696 89.4351 11.7816 89.4351 11.4456Z" fill="black"/>
<path d="M99.7432 11.037C99.7432 11.762 99.5309 12.356 99.1063 12.822C98.6611 13.301 98.0724 13.54 97.335 13.54C96.6263 13.54 96.0612 13.311 95.6386 12.851C95.2181 12.392 95.0078 11.813 95.0078 11.115C95.0078 10.385 95.2242 9.78605 95.6591 9.32105C96.094 8.85605 96.6786 8.62305 97.416 8.62305C98.1247 8.62305 98.696 8.85205 99.1268 9.31105C99.5371 9.75705 99.7432 10.333 99.7432 11.037ZM98.6294 11.071C98.6294 10.636 98.5329 10.263 98.3411 9.95205C98.1145 9.57605 97.7945 9.38805 97.376 9.38805C96.9453 9.38805 96.617 9.57605 96.3904 9.95205C96.1976 10.263 96.1022 10.642 96.1022 11.09C96.1022 11.525 96.1986 11.898 96.3904 12.209C96.6232 12.585 96.9473 12.773 97.3658 12.773C97.776 12.773 98.0991 12.582 98.3309 12.199C98.5288 11.882 98.6294 11.506 98.6294 11.071Z" fill="black"/>
<path d="M105.522 13.4341H104.448V10.7341C104.448 9.90209 104.124 9.48609 103.473 9.48609C103.154 9.48609 102.896 9.60009 102.697 9.82909C102.498 10.0581 102.399 10.3281 102.399 10.6371V13.4331H101.323V10.0671C101.323 9.65309 101.311 9.20409 101.285 8.71809H102.229L102.279 9.45509H102.309C102.435 9.22609 102.622 9.03709 102.866 8.88609C103.158 8.71009 103.483 8.62109 103.841 8.62109C104.291 8.62109 104.667 8.76309 104.965 9.04809C105.337 9.39709 105.522 9.91809 105.522 10.6101V13.4341Z" fill="black"/>
<path d="M112.755 9.50392H111.572V11.7939C111.572 12.3759 111.782 12.6669 112.198 12.6669C112.391 12.6669 112.551 12.6509 112.677 12.6179L112.705 13.4129C112.493 13.4909 112.214 13.5299 111.87 13.5299C111.445 13.5299 111.115 13.4039 110.876 13.1519C110.636 12.8999 110.517 12.4759 110.517 11.8809V9.50392H109.811V8.71892H110.517V7.85492L111.571 7.54492V8.71792H112.754V9.50392H112.755Z" fill="black"/>
<path d="M118.447 13.4336H117.371V10.7536C117.371 9.90864 117.047 9.48564 116.398 9.48564C115.899 9.48564 115.559 9.73064 115.372 10.2206C115.34 10.3236 115.322 10.4496 115.322 10.5976V13.4326H114.248V6.55664H115.322V9.39764H115.342C115.681 8.88064 116.166 8.62264 116.795 8.62264C117.24 8.62264 117.608 8.76464 117.9 9.04964C118.264 9.40464 118.447 9.93264 118.447 10.6306V13.4336Z" fill="black"/>
<path d="M124.316 10.8542C124.316 11.0422 124.302 11.2002 124.276 11.3292H121.052C121.067 11.7952 121.221 12.1502 121.519 12.3962C121.792 12.6162 122.144 12.7262 122.575 12.7262C123.051 12.7262 123.486 12.6522 123.878 12.5032L124.046 13.2312C123.588 13.4252 123.048 13.5222 122.424 13.5222C121.675 13.5222 121.085 13.3072 120.659 12.8772C120.23 12.4472 120.018 11.8702 120.018 11.1462C120.018 10.4352 120.216 9.84323 120.615 9.37123C121.031 8.86723 121.594 8.61523 122.305 8.61523C123 8.61523 123.528 8.86723 123.885 9.37123C124.173 9.77123 124.316 10.2662 124.316 10.8542ZM123.29 10.5832C123.299 10.2722 123.228 10.0042 123.082 9.77823C122.896 9.48723 122.611 9.34123 122.227 9.34123C121.876 9.34123 121.59 9.48323 121.371 9.76823C121.193 9.99523 121.087 10.2662 121.052 10.5832H123.29Z" fill="black"/>
<path d="M55.0211 31.5033H52.6919L51.416 27.5943H46.9811L45.7657 31.5033H43.498L47.8919 18.1953H50.6057L55.0211 31.5033ZM51.0314 25.9543L49.8775 22.4793C49.7555 22.1243 49.5268 21.2883 49.1893 19.9723H49.1483C49.0139 20.5383 48.7975 21.3743 48.5001 22.4793L47.3668 25.9543H51.0314Z" fill="black"/>
<path d="M66.3197 26.5879C66.3197 28.2199 65.8674 29.5099 64.9628 30.4569C64.1526 31.2999 63.1464 31.7209 61.9454 31.7209C60.649 31.7209 59.7177 31.2669 59.1505 30.3589H59.1095V35.4139H56.9228V25.0669C56.9228 24.0409 56.8951 22.9879 56.8418 21.9079H58.7649L58.8869 23.4289H58.9279C59.6572 22.2829 60.7638 21.7109 62.249 21.7109C63.41 21.7109 64.3792 22.1579 65.1546 23.0529C65.932 23.9489 66.3197 25.1269 66.3197 26.5879ZM64.092 26.6659C64.092 25.7319 63.8767 24.9619 63.4438 24.3559C62.971 23.7239 62.3361 23.4079 61.5403 23.4079C61.0008 23.4079 60.5105 23.5839 60.0726 23.9309C59.6336 24.2809 59.3464 24.7379 59.212 25.3039C59.1444 25.5679 59.1105 25.7839 59.1105 25.9539V27.5539C59.1105 28.2519 59.33 28.8409 59.769 29.3219C60.2079 29.8029 60.7782 30.0429 61.4797 30.0429C62.3033 30.0429 62.9444 29.7329 63.4028 29.1149C63.8623 28.4959 64.092 27.6799 64.092 26.6659Z" fill="black"/>
<path d="M77.641 26.5879C77.641 28.2199 77.1887 29.5099 76.283 30.4569C75.4738 31.2999 74.4677 31.7209 73.2666 31.7209C71.9702 31.7209 71.0389 31.2669 70.4728 30.3589H70.4318V35.4139H68.2451V25.0669C68.2451 24.0409 68.2174 22.9879 68.1641 21.9079H70.0871L70.2092 23.4289H70.2502C70.9784 22.2829 72.0851 21.7109 73.5712 21.7109C74.7312 21.7109 75.7005 22.1579 76.4779 23.0529C77.2523 23.9489 77.641 25.1269 77.641 26.5879ZM75.4133 26.6659C75.4133 25.7319 75.1969 24.9619 74.7641 24.3559C74.2912 23.7239 73.6584 23.4079 72.8615 23.4079C72.321 23.4079 71.8318 23.5839 71.3928 23.9309C70.9538 24.2809 70.6676 24.7379 70.5333 25.3039C70.4666 25.5679 70.4318 25.7839 70.4318 25.9539V27.5539C70.4318 28.2519 70.6512 28.8409 71.0882 29.3219C71.5271 29.8019 72.0974 30.0429 72.801 30.0429C73.6246 30.0429 74.2656 29.7329 74.7241 29.1149C75.1836 28.4959 75.4133 27.6799 75.4133 26.6659Z" fill="black"/>
<path d="M90.2978 27.771C90.2978 28.903 89.8947 29.824 89.0855 30.535C88.1962 31.312 86.9583 31.7 85.3675 31.7C83.8988 31.7 82.7214 31.424 81.8301 30.871L82.3367 29.094C83.2967 29.66 84.3501 29.944 85.4978 29.944C86.3214 29.944 86.9624 29.762 87.4229 29.4C87.8814 29.038 88.1101 28.552 88.1101 27.946C88.1101 27.406 87.9214 26.951 87.5429 26.582C87.1665 26.213 86.5378 25.87 85.6598 25.553C83.2701 24.684 82.0762 23.411 82.0762 21.737C82.0762 20.643 82.4947 19.746 83.3326 19.048C84.1675 18.349 85.2814 18 86.6742 18C87.9162 18 88.948 18.211 89.7716 18.632L89.2249 20.37C88.4557 19.962 87.586 19.758 86.6126 19.758C85.8434 19.758 85.2424 19.943 84.8116 20.311C84.4475 20.64 84.265 21.041 84.265 21.516C84.265 22.042 84.4732 22.477 84.8916 22.819C85.2557 23.135 85.9173 23.477 86.8773 23.846C88.0516 24.307 88.9142 24.846 89.4691 25.464C90.0219 26.08 90.2978 26.851 90.2978 27.771Z" fill="black"/>
<path d="M97.527 23.5066H95.1168V28.1656C95.1168 29.3506 95.5414 29.9426 96.3927 29.9426C96.7835 29.9426 97.1076 29.9096 97.364 29.8436L97.4245 31.4626C96.9937 31.6196 96.4265 31.6986 95.724 31.6986C94.8604 31.6986 94.1855 31.4416 93.6983 30.9286C93.2132 30.4146 92.9691 29.5526 92.9691 28.3416V23.5046H91.5332V21.9046H92.9691V20.1476L95.1168 19.5156V21.9046H97.527V23.5066Z" fill="black"/>
<path d="M108.402 26.6259C108.402 28.1009 107.969 29.3119 107.105 30.2589C106.2 31.2339 104.998 31.7199 103.499 31.7199C102.055 31.7199 100.905 31.2529 100.048 30.3189C99.1904 29.3849 98.7617 28.2059 98.7617 26.7849C98.7617 25.2979 99.2027 24.0799 100.088 23.1329C100.971 22.1849 102.163 21.7109 103.661 21.7109C105.105 21.7109 106.267 22.1779 107.144 23.1129C107.983 24.0199 108.402 25.1909 108.402 26.6259ZM106.133 26.6949C106.133 25.8099 105.939 25.0509 105.546 24.4179C105.088 23.6519 104.432 23.2699 103.583 23.2699C102.704 23.2699 102.037 23.6529 101.578 24.4179C101.185 25.0519 100.991 25.8229 100.991 26.7349C100.991 27.6199 101.185 28.3789 101.578 29.0109C102.051 29.7769 102.711 30.1589 103.564 30.1589C104.399 30.1589 105.054 29.7689 105.527 28.9909C105.93 28.3459 106.133 27.5789 106.133 26.6949Z" fill="black"/>
<path d="M115.51 23.7829C115.293 23.7439 115.063 23.7239 114.821 23.7239C114.051 23.7239 113.456 24.0069 113.038 24.5739C112.674 25.0739 112.491 25.7059 112.491 26.4689V31.5039H110.306L110.326 24.9299C110.326 23.8239 110.298 22.8169 110.244 21.9089H112.149L112.229 23.7449H112.289C112.52 23.1139 112.884 22.6059 113.383 22.2249C113.87 21.8819 114.396 21.7109 114.963 21.7109C115.165 21.7109 115.348 21.7249 115.51 21.7499V23.7829Z" fill="black"/>
<path d="M125.29 26.2504C125.29 26.6324 125.264 26.9544 125.21 27.2174H118.65C118.675 28.1654 118.992 28.8904 119.601 29.3904C120.154 29.8374 120.869 30.0614 121.747 30.0614C122.718 30.0614 123.605 29.9104 124.401 29.6074L124.744 31.0874C123.813 31.4834 122.713 31.6804 121.445 31.6804C119.918 31.6804 118.72 31.2424 117.849 30.3674C116.979 29.4924 116.543 28.3174 116.543 26.8434C116.543 25.3964 116.948 24.1914 117.759 23.2304C118.609 22.2044 119.756 21.6914 121.2 21.6914C122.619 21.6914 123.693 22.2044 124.422 23.2304C124.999 24.0454 125.29 25.0534 125.29 26.2504ZM123.205 25.6974C123.219 25.0654 123.076 24.5194 122.78 24.0584C122.401 23.4654 121.82 23.1694 121.037 23.1694C120.322 23.1694 119.741 23.4584 119.297 24.0384C118.933 24.4994 118.716 25.0524 118.65 25.6964H123.205V25.6974Z" fill="black"/>
</svg>
