<svg width="139" height="40" viewBox="0 0 139 40" fill="none" xmlns="http://www.w3.org/2000/svg">
<path d="M133.333 40H5.1282C2.30897 40 0 37.7488 0 35V5C0 2.25126 2.30897 4.76837e-06 5.1282 4.76837e-06H133.333C136.153 4.76837e-06 138.462 2.25126 138.462 5V35C138.462 37.7488 136.153 40 133.333 40Z" fill="white"/>
<path d="M133.333 0.801253C135.708 0.801253 137.64 2.685 137.64 5V35C137.64 37.315 135.708 39.1988 133.333 39.1988H5.1282C2.75385 39.1988 0.821795 37.315 0.821795 35V5C0.821795 2.685 2.75385 0.801253 5.1282 0.801253H133.333ZM133.333 4.76837e-06H5.1282C2.30897 4.76837e-06 0 2.25126 0 5V35C0 37.7488 2.30897 40 5.1282 40H133.333C136.153 40 138.462 37.7488 138.462 35V5C138.462 2.25126 136.153 4.76837e-06 133.333 4.76837e-06Z" fill="black"/>
<path d="M9.93267 7.54015C9.63139 7.84765 9.45703 8.3264 9.45703 8.9464V31.0614C9.45703 31.6814 9.63139 32.1602 9.93267 32.4677L10.007 32.5352L22.7173 20.1477V19.8552L10.007 7.46765L9.93267 7.54015Z" fill="black"/>
<path d="M28.4879 24.2793L24.2559 20.148V19.8555L28.493 15.7243L28.5879 15.7781L33.6059 18.5618C35.0379 19.3518 35.0379 20.6518 33.6059 21.4468L28.5879 24.2255L28.4879 24.2793Z" fill="black"/>
<path d="M27.8178 24.994L23.4858 20.7702L10.7012 33.2365C11.1768 33.724 11.9525 33.7827 12.8345 33.2952L27.8178 24.994Z" fill="black"/>
<path d="M27.8178 15.0087L12.8345 6.70742C11.9525 6.22493 11.1768 6.28367 10.7012 6.77117L23.4858 19.2324L27.8178 15.0087Z" fill="black"/>
<path d="M48.6326 10.244C48.6326 11.079 48.3762 11.7477 47.8711 12.2465C47.2903 12.8377 46.5339 13.1352 45.607 13.1352C44.7211 13.1352 43.9647 12.8327 43.3442 12.2365C42.7224 11.6315 42.4121 10.889 42.4121 10.0002C42.4121 9.11148 42.7224 8.36898 43.3442 7.76898C43.9647 7.16773 44.7211 6.86523 45.607 6.86523C46.048 6.86523 46.4685 6.95398 46.8698 7.11898C47.2698 7.28523 47.5954 7.51023 47.8313 7.78773L47.2954 8.31524C46.8839 7.84149 46.3237 7.60774 45.607 7.60774C44.9608 7.60774 44.4006 7.82773 43.9249 8.27148C43.4544 8.71648 43.2185 9.29273 43.2185 10.0002C43.2185 10.7077 43.4544 11.289 43.9249 11.734C44.4006 12.1727 44.9608 12.3977 45.607 12.3977C46.2929 12.3977 46.8698 12.1727 47.3249 11.729C47.6249 11.4352 47.7954 11.0302 47.8403 10.5127H45.607V9.79023H48.5865C48.6224 9.94648 48.6326 10.0977 48.6326 10.244Z" fill="black" stroke="black" stroke-width="0.16" stroke-miterlimit="10"/>
<path d="M53.3586 7.7382H50.5599V9.6382H53.083V10.3607H50.5599V12.2607H53.3586V12.997H49.7676V7.00195H53.3586V7.7382Z" fill="black" stroke="black" stroke-width="0.16" stroke-miterlimit="10"/>
<path d="M56.6945 12.997H55.9022V7.7382H54.1855V7.00195H58.4125V7.7382H56.6945V12.997Z" fill="black" stroke="black" stroke-width="0.16" stroke-miterlimit="10"/>
<path d="M61.4727 12.997V7.00195H62.2637V12.997H61.4727Z" fill="black" stroke="black" stroke-width="0.16" stroke-miterlimit="10"/>
<path d="M65.7707 12.997H64.9848V7.7382H63.2617V7.00195H67.4938V7.7382H65.7707V12.997Z" fill="black" stroke="black" stroke-width="0.16" stroke-miterlimit="10"/>
<path d="M75.4954 12.2265C74.889 12.8327 74.1377 13.1352 73.2416 13.1352C72.3403 13.1352 71.589 12.8327 70.9826 12.2265C70.3775 11.6215 70.0762 10.879 70.0762 10.0002C70.0762 9.12148 70.3775 8.37898 70.9826 7.77398C71.589 7.16773 72.3403 6.86523 73.2416 6.86523C74.1326 6.86523 74.8839 7.16773 75.4903 7.77898C76.1005 8.38898 76.4018 9.12648 76.4018 10.0002C76.4018 10.879 76.1005 11.6215 75.4954 12.2265ZM71.5685 11.724C72.0249 12.1727 72.58 12.3977 73.2416 12.3977C73.898 12.3977 74.4582 12.1727 74.9095 11.724C75.3646 11.2752 75.5954 10.699 75.5954 10.0002C75.5954 9.30148 75.3646 8.72523 74.9095 8.27648C74.4582 7.82774 73.898 7.60273 73.2416 7.60273C72.58 7.60273 72.0249 7.82774 71.5685 8.27648C71.1134 8.72523 70.8826 9.30148 70.8826 10.0002C70.8826 10.699 71.1134 11.2752 71.5685 11.724Z" fill="black" stroke="black" stroke-width="0.16" stroke-miterlimit="10"/>
<path d="M77.5137 12.997V7.00195H78.4752L81.4649 11.6645H81.4996L81.4649 10.512V7.00195H82.256V12.997H81.4303L78.2996 8.10445H78.265L78.2996 9.26195V12.997H77.5137Z" fill="black" stroke="black" stroke-width="0.16" stroke-miterlimit="10"/>
<path d="M69.8815 21.7531C67.4726 21.7531 65.5046 23.5406 65.5046 26.0069C65.5046 28.4531 67.4726 30.2594 69.8815 30.2594C72.2956 30.2594 74.2636 28.4531 74.2636 26.0069C74.2636 23.5406 72.2956 21.7531 69.8815 21.7531ZM69.8815 28.5844C68.5597 28.5844 67.4226 27.5206 67.4226 26.0069C67.4226 24.4731 68.5597 23.4281 69.8815 23.4281C71.2033 23.4281 72.3456 24.4731 72.3456 26.0069C72.3456 27.5206 71.2033 28.5844 69.8815 28.5844ZM60.3315 21.7531C57.9174 21.7531 55.9546 23.5406 55.9546 26.0069C55.9546 28.4531 57.9174 30.2594 60.3315 30.2594C62.7443 30.2594 64.7085 28.4531 64.7085 26.0069C64.7085 23.5406 62.7443 21.7531 60.3315 21.7531ZM60.3315 28.5844C59.0085 28.5844 57.8674 27.5206 57.8674 26.0069C57.8674 24.4731 59.0085 23.4281 60.3315 23.4281C61.6533 23.4281 62.7905 24.4731 62.7905 26.0069C62.7905 27.5206 61.6533 28.5844 60.3315 28.5844ZM48.9674 23.0569V24.8644H53.3944C53.2649 25.8744 52.9187 26.6169 52.3879 27.1344C51.7418 27.7594 50.7354 28.4531 48.9674 28.4531C46.2431 28.4531 44.1097 26.3094 44.1097 23.6531C44.1097 20.9969 46.2431 18.8531 48.9674 18.8531C50.4405 18.8531 51.5123 19.4144 52.3033 20.1419L53.6097 18.8681C52.5033 17.8381 51.0315 17.0469 48.9674 17.0469C45.2315 17.0469 42.0918 20.0106 42.0918 23.6531C42.0918 27.2956 45.2315 30.2594 48.9674 30.2594C50.9867 30.2594 52.5033 29.6144 53.6956 28.4044C54.9174 27.2131 55.2982 25.5381 55.2982 24.1856C55.2982 23.7656 55.2623 23.3794 55.1982 23.0569H48.9674ZM95.4366 24.4581C95.0764 23.5069 93.9649 21.7531 91.7008 21.7531C89.4572 21.7531 87.5892 23.4769 87.5892 26.0069C87.5892 28.3894 89.4379 30.2594 91.9161 30.2594C93.92 30.2594 95.0764 29.0681 95.552 28.3744L94.0649 27.4081C93.5687 28.1156 92.8931 28.5844 91.9161 28.5844C90.9456 28.5844 90.2495 28.1506 89.8033 27.2956L95.6379 24.9419L95.4366 24.4581ZM89.4879 25.8744C89.4379 24.2344 90.7943 23.3944 91.7661 23.3944C92.5277 23.3944 93.1738 23.7656 93.3892 24.2969L89.4879 25.8744ZM84.7456 30.0006H86.6636V17.5006H84.7456V30.0006ZM81.6046 22.7006H81.5405C81.1097 22.2031 80.2879 21.7531 79.2469 21.7531C77.0623 21.7531 75.0649 23.6231 75.0649 26.0206C75.0649 28.4044 77.0623 30.2594 79.2469 30.2594C80.2879 30.2594 81.1097 29.8056 81.5405 29.2931H81.6046V29.9031C81.6046 31.5294 80.7136 32.4031 79.2764 32.4031C78.1046 32.4031 77.3777 31.5781 77.0777 30.8844L75.4097 31.5631C75.8905 32.6906 77.1636 34.0781 79.2764 34.0781C81.5251 34.0781 83.4225 32.7881 83.4225 29.6494V22.0119H81.6046V22.7006ZM79.411 28.5844C78.0892 28.5844 76.9828 27.5056 76.9828 26.0206C76.9828 24.5219 78.0892 23.4281 79.411 23.4281C80.7136 23.4281 81.7405 24.5219 81.7405 26.0206C81.7405 27.5056 80.7136 28.5844 79.411 28.5844ZM104.416 17.5006H99.8289V30.0006H101.742V25.2644H104.416C106.54 25.2644 108.624 23.7656 108.624 21.3819C108.624 18.9994 106.535 17.5006 104.416 17.5006ZM104.466 23.5256H101.742V19.2394H104.466C105.894 19.2394 106.71 20.3956 106.71 21.3819C106.71 22.3494 105.894 23.5256 104.466 23.5256ZM116.29 21.7294C114.908 21.7294 113.471 22.3244 112.88 23.6431L114.578 24.3369C114.943 23.6431 115.615 23.4181 116.325 23.4181C117.317 23.4181 118.324 23.9994 118.339 25.0256V25.1569C117.993 24.9619 117.252 24.6731 116.34 24.6731C114.512 24.6731 112.649 25.6544 112.649 27.4856C112.649 29.1606 114.147 30.2394 115.83 30.2394C117.117 30.2394 117.828 29.6731 118.274 29.0144H118.339V29.9806H120.187V25.1856C120.187 22.9694 118.489 21.7294 116.29 21.7294ZM116.06 28.5794C115.434 28.5794 114.562 28.2769 114.562 27.5206C114.562 26.5531 115.649 26.1819 116.59 26.1819C117.433 26.1819 117.828 26.3631 118.339 26.6019C118.189 27.7594 117.167 28.5794 116.06 28.5794ZM126.917 22.0031L124.719 27.4219H124.653L122.38 22.0031H120.317L123.733 29.5756L121.784 33.7894H123.783L129.046 22.0031H126.917ZM109.675 30.0006H111.593V17.5006H109.675V30.0006Z" fill="black"/>
</svg>
