<svg width="28" height="26" viewBox="0 0 28 26" fill="none" xmlns="http://www.w3.org/2000/svg">
<g clip-path="url(#clip0_10_162)">
<path d="M12.323 19.2458C12.323 21.1108 12.323 22.9767 12.323 24.8427C12.323 25.0524 12.2653 25.0964 12.064 25.0964C9.42232 25.0891 6.77955 25.0964 4.13782 25.0912C2.95953 25.0912 2.27184 24.4024 2.27184 23.2241C2.27184 20.0331 2.2701 16.8424 2.2666 13.6521C2.2666 13.4277 2.31168 13.3669 2.54545 13.368C5.71133 13.3778 8.87651 13.3778 12.041 13.368C12.2685 13.368 12.3251 13.4183 12.324 13.6489C12.3188 15.5149 12.323 17.3799 12.323 19.2458Z" fill="url(#paint0_linear_10_162)"/>
<path d="M15.672 19.2343C15.672 17.36 15.672 15.4856 15.672 13.6112C15.672 13.4173 15.716 13.3691 15.9131 13.3691C19.1041 13.3761 22.2955 13.3761 25.4873 13.3691C25.6843 13.3691 25.7284 13.4173 25.7273 13.6112C25.721 16.8372 25.721 20.0628 25.7273 23.2881C25.7273 24.3794 25.025 25.0881 23.9284 25.0902C21.2521 25.0902 18.5748 25.0902 15.8984 25.0965C15.7003 25.0965 15.6783 25.0252 15.6783 24.8564C15.6741 22.9831 15.672 21.1087 15.672 19.2343Z" fill="url(#paint1_linear_10_162)"/>
<path d="M27.3973 8.53052C27.436 7.47488 26.675 6.64357 25.5439 6.67083C23.9305 6.70228 22.3172 6.67922 20.7038 6.67712C20.6346 6.67712 20.5529 6.71381 20.4795 6.63624C20.6168 6.53141 20.7489 6.43706 20.8789 6.33642C22.01 5.45689 22.5509 4.31319 22.3077 2.88436C22.075 1.51527 21.2731 0.56446 19.9333 0.172394C18.5936 -0.219671 17.3472 0.0528877 16.3691 1.10224C15.6279 1.8979 15.1111 2.85081 14.6677 3.83936C14.3308 4.53772 14.1179 5.28939 14.0387 6.06072C14.009 6.10542 13.9933 6.15799 13.9936 6.21167C13.9948 6.15802 13.9795 6.10531 13.9496 6.06072C13.9192 5.84581 13.9045 5.62672 13.8563 5.41601C13.5041 3.88863 12.7829 2.53317 11.8184 1.31924C10.854 0.105303 9.53206 -0.253217 8.06549 0.176588C6.59891 0.606392 5.80639 1.65679 5.65124 3.14538C5.51287 4.47149 6.06427 5.53342 7.11887 6.33852L7.56649 6.68026H7.23523C5.6135 6.68026 3.99178 6.67502 2.37005 6.68026C1.30183 6.68551 0.607852 7.38787 0.601562 8.45399C0.601562 9.20353 0.601562 9.95307 0.601562 10.7026C0.601562 11.3777 0.916054 11.6995 1.59011 11.7006C5.08446 11.7006 8.5809 11.7006 12.0794 11.7006C12.2692 11.7006 12.33 11.6639 12.3268 11.4616C12.3153 10.494 12.3268 9.52641 12.3174 8.55882C12.3174 8.38795 12.3625 8.34287 12.5271 8.34916C13.4947 8.35755 14.4633 8.35965 15.4309 8.34916C15.63 8.34916 15.672 8.40158 15.6699 8.59342C15.6594 9.561 15.6699 10.5286 15.6625 11.4962C15.6625 11.645 15.6835 11.7058 15.8575 11.7058C19.398 11.7002 22.9378 11.6981 26.4768 11.6995C27.0503 11.6995 27.3826 11.3515 27.3847 10.7802C27.3941 10.0296 27.37 9.27901 27.3973 8.53052ZM11.6004 6.63833C10.9378 6.54818 10.3298 6.2903 9.73858 5.99363C9.08234 5.6697 8.44707 5.30699 7.903 4.80904C7.63033 4.56178 7.43885 4.2378 7.35372 3.8797C7.26859 3.52159 7.29379 3.14611 7.42602 2.80259C7.55742 2.46834 7.78571 2.18098 8.08157 1.97738C8.37744 1.77378 8.7274 1.66324 9.08653 1.65994C9.34002 1.65366 9.5917 1.70416 9.82315 1.80773C10.0546 1.9113 10.2599 2.06532 10.4242 2.25852C11.3233 3.30517 11.9467 4.5599 12.2377 5.90871C12.3751 6.49996 12.4589 6.75574 11.6004 6.63833ZM13.9978 6.37626C13.9992 6.41896 13.9975 6.46171 13.9926 6.50415C13.9957 6.46123 13.9957 6.41813 13.9926 6.37521C13.9926 6.33852 13.9926 6.30078 13.9926 6.26409C13.9978 6.30078 13.9999 6.33957 13.9978 6.37626ZM20.1074 4.79017C19.0803 5.66891 17.8624 6.29599 16.5505 6.62156C16.3888 6.65774 16.2234 6.67463 16.0578 6.67188C15.7558 6.67188 15.6814 6.57439 15.7003 6.27143C15.7359 5.72526 15.9162 5.22312 16.1196 4.71994C16.4781 3.83936 16.9121 3.00072 17.5474 2.28053C17.7883 2.00538 18.1076 1.8104 18.4624 1.72171C18.8172 1.63301 19.1906 1.65483 19.5327 1.78424C19.8748 1.91366 20.1691 2.14449 20.3764 2.44583C20.5836 2.74717 20.6938 3.10463 20.6923 3.47036C20.6755 3.98403 20.5036 4.45052 20.1074 4.79017Z" fill="url(#paint2_linear_10_162)"/>
</g>
<defs>
<linearGradient id="paint0_linear_10_162" x1="7.29532" y1="13.368" x2="7.29532" y2="25.0964" gradientUnits="userSpaceOnUse">
<stop stop-color="#9B62E0"/>
<stop offset="1" stop-color="#BB8AF5"/>
</linearGradient>
<linearGradient id="paint1_linear_10_162" x1="20.6997" y1="13.3691" x2="20.6997" y2="25.0965" gradientUnits="userSpaceOnUse">
<stop stop-color="#9B62E0"/>
<stop offset="1" stop-color="#BB8AF5"/>
</linearGradient>
<linearGradient id="paint2_linear_10_162" x1="14.0001" y1="0.00170898" x2="14.0001" y2="11.7058" gradientUnits="userSpaceOnUse">
<stop stop-color="#9B62E0"/>
<stop offset="1" stop-color="#BB8AF5"/>
</linearGradient>
<clipPath id="clip0_10_162">
<rect width="26.7967" height="25.0964" fill="white" transform="translate(0.601562)"/>
</clipPath>
</defs>
</svg>
